<svg width="1455" height="601" viewBox="0 0 1455 601" fill="none" xmlns="http://www.w3.org/2000/svg">
<mask id="path-1-outside-1_37_875" maskUnits="userSpaceOnUse" x="0" y="0" width="1455" height="601" fill="black">
<rect fill="white" width="1455" height="601"/>
<path d="M169.062 124.762L219.505 91.0454C228.782 100.762 241.9 110.115 258.859 119.107L253.206 141.512C310.171 261.443 300.822 379.489 225.158 495.649L204.72 445.618C197.327 449.098 198.56 420.819 208.416 360.781L143.406 373.833L118.402 461.932L90.354 489.994C76.2938 486.368 63.1758 477.014 51 461.932L56.6531 383.187C65.2051 359.984 75.3517 336.563 87.0927 312.925L84.2661 285.299L94.92 258.543L119.924 243.316L146.45 164.135L169.062 124.762ZM171.236 295.523L208.634 292.477L194.936 238.965L171.236 295.523Z"/>
<path d="M341.481 126.285C357.715 110.043 379.385 97.7888 406.491 89.5227C450.121 89.8127 494.548 104.025 539.773 132.158L536.946 140.642C584.78 169.356 579.054 208.076 519.77 256.803C577.605 303.499 582.388 358.316 534.12 421.254C513.247 470.851 472.588 492.604 412.144 486.513C373.007 498.115 334.306 492.459 296.039 469.546C296.908 462.73 298.793 456.059 301.692 449.533L307.345 426.91V407.115L310.171 398.631V376.008C313.65 367.887 315.535 358.389 315.824 347.512L321.477 336.201V324.889C312.491 311.837 310.606 297.625 315.824 282.253C330.899 248.609 338.437 208.946 338.437 163.265L341.481 143.47V126.285ZM460.412 251.147C494.186 199.81 477.154 175.229 409.317 177.404C407.578 185.961 406.636 196.329 406.491 208.511L403.664 228.524V245.491L400.838 253.975V262.458C417.507 262.168 437.365 258.398 460.412 251.147ZM468.892 387.32C484.692 366.872 487.518 344.177 477.372 319.233C457.369 326.629 434.684 330.4 409.317 330.545L392.358 336.201C378.008 374.051 376.124 398.631 386.705 409.943C423.378 427.635 450.773 420.094 468.892 387.32Z"/>
<path d="M742.848 97.3537C745.023 96.7737 747.124 94.6709 749.154 91.0454C827.427 117.584 869.463 176.462 875.261 267.679C852.358 372.093 789.305 446.705 686.1 491.516C675.374 492.677 663.85 491.661 651.53 488.471C589.926 457.727 566.806 406.172 582.171 333.808L569.56 295.958L591.52 239.183L594.781 229.829L604.131 204.596L607.392 195.024L638.919 154.129L645.224 147.82L661.749 106.272L673.707 101.922C682.549 113.378 699.291 111.856 723.932 97.3537H742.848ZM783.942 273.987C777.274 231.497 759.373 207.278 730.238 201.333C725.164 212.789 716.757 224.391 705.016 236.137L689.362 261.371L679.795 273.987C677.911 287.909 678.998 304.731 683.056 324.454C678.853 350.558 683.056 376.806 695.667 403.2C736.688 373.036 766.113 329.965 783.942 273.987Z"/>
<path d="M1097.25 109.318L1119.86 88L1123.13 97.1362C1146.32 93.5107 1163.71 102.647 1175.31 124.545C1176.18 156.014 1168.57 191.399 1152.48 230.699L1145.96 261.153L1142.69 270.289C1142.84 280.586 1140.66 291.752 1136.17 303.789L1132.91 319.016C1131.46 328.877 1128.2 339.971 1123.13 352.298V370.57C1121.24 388.553 1123.42 408.783 1129.65 431.261V440.397L1126.39 452.579C1107.83 476.072 1085.58 491.879 1059.64 500L1028.76 458.669C957.592 491.444 910.918 470.199 888.741 394.933C886.857 383.042 886.857 367.815 888.741 349.252L890.046 291.172C880.189 258.978 887.291 204.451 911.353 127.59L937.662 97.1362C947.953 100.182 957.737 106.272 967.014 115.409C968.174 132.086 973.609 149.271 983.321 166.963V176.099L980.06 236.79V267.244C980.929 278.7 979.842 292.912 976.798 309.88V330.98L986.582 346.207C996.294 359.549 1007.09 361.579 1018.98 352.298C1023.91 342.291 1026.08 330.182 1025.5 315.97C1037.53 300.888 1045.14 281.601 1048.33 258.108C1051.23 247.231 1055.58 236.137 1061.38 224.826L1064.64 203.508L1067.9 188.281L1080.95 157.827L1084.21 142.6L1090.73 127.59L1097.25 109.318Z"/>
<path d="M1189.88 170.879C1205.24 129.548 1236.84 102.864 1284.67 90.8279C1327.87 85.8972 1368.31 98.7314 1406 129.331C1406.29 166.31 1388.53 189.078 1352.73 197.635C1354.03 221.418 1350.05 247.086 1340.77 274.64V283.559C1342.51 301.976 1340.55 324.672 1334.9 351.645L1332.07 369.483V390.148L1329.03 399.067L1332.07 419.732V443.442C1311.49 497.39 1287.79 506.308 1260.97 470.199L1255.1 473.026C1255.54 462.44 1254.52 451.636 1252.06 440.615C1254.96 429.303 1254.96 416.469 1252.06 402.112C1254.67 385.58 1255.68 365.785 1255.1 342.727V253.975C1254.38 243.098 1255.32 230.191 1257.93 215.254C1223 218.445 1200.31 203.653 1189.88 170.879Z"/>
</mask>
<path d="M169.062 124.762L219.505 91.0454C228.782 100.762 241.9 110.115 258.859 119.107L253.206 141.512C310.171 261.443 300.822 379.489 225.158 495.649L204.72 445.618C197.327 449.098 198.56 420.819 208.416 360.781L143.406 373.833L118.402 461.932L90.354 489.994C76.2938 486.368 63.1758 477.014 51 461.932L56.6531 383.187C65.2051 359.984 75.3517 336.563 87.0927 312.925L84.2661 285.299L94.92 258.543L119.924 243.316L146.45 164.135L169.062 124.762ZM171.236 295.523L208.634 292.477L194.936 238.965L171.236 295.523Z" fill="white"/>
<path d="M341.481 126.285C357.715 110.043 379.385 97.7888 406.491 89.5227C450.121 89.8127 494.548 104.025 539.773 132.158L536.946 140.642C584.78 169.356 579.054 208.076 519.77 256.803C577.605 303.499 582.388 358.316 534.12 421.254C513.247 470.851 472.588 492.604 412.144 486.513C373.007 498.115 334.306 492.459 296.039 469.546C296.908 462.73 298.793 456.059 301.692 449.533L307.345 426.91V407.115L310.171 398.631V376.008C313.65 367.887 315.535 358.389 315.824 347.512L321.477 336.201V324.889C312.491 311.837 310.606 297.625 315.824 282.253C330.899 248.609 338.437 208.946 338.437 163.265L341.481 143.47V126.285ZM460.412 251.147C494.186 199.81 477.154 175.229 409.317 177.404C407.578 185.961 406.636 196.329 406.491 208.511L403.664 228.524V245.491L400.838 253.975V262.458C417.507 262.168 437.365 258.398 460.412 251.147ZM468.892 387.32C484.692 366.872 487.518 344.177 477.372 319.233C457.369 326.629 434.684 330.4 409.317 330.545L392.358 336.201C378.008 374.051 376.124 398.631 386.705 409.943C423.378 427.635 450.773 420.094 468.892 387.32Z" fill="white"/>
<path d="M742.848 97.3537C745.023 96.7737 747.124 94.6709 749.154 91.0454C827.427 117.584 869.463 176.462 875.261 267.679C852.358 372.093 789.305 446.705 686.1 491.516C675.374 492.677 663.85 491.661 651.53 488.471C589.926 457.727 566.806 406.172 582.171 333.808L569.56 295.958L591.52 239.183L594.781 229.829L604.131 204.596L607.392 195.024L638.919 154.129L645.224 147.82L661.749 106.272L673.707 101.922C682.549 113.378 699.291 111.856 723.932 97.3537H742.848ZM783.942 273.987C777.274 231.497 759.373 207.278 730.238 201.333C725.164 212.789 716.757 224.391 705.016 236.137L689.362 261.371L679.795 273.987C677.911 287.909 678.998 304.731 683.056 324.454C678.853 350.558 683.056 376.806 695.667 403.2C736.688 373.036 766.113 329.965 783.942 273.987Z" fill="white"/>
<path d="M1097.25 109.318L1119.86 88L1123.13 97.1362C1146.32 93.5107 1163.71 102.647 1175.31 124.545C1176.18 156.014 1168.57 191.399 1152.48 230.699L1145.96 261.153L1142.69 270.289C1142.84 280.586 1140.66 291.752 1136.17 303.789L1132.91 319.016C1131.46 328.877 1128.2 339.971 1123.13 352.298V370.57C1121.24 388.553 1123.42 408.783 1129.65 431.261V440.397L1126.39 452.579C1107.83 476.072 1085.58 491.879 1059.64 500L1028.76 458.669C957.592 491.444 910.918 470.199 888.741 394.933C886.857 383.042 886.857 367.815 888.741 349.252L890.046 291.172C880.189 258.978 887.291 204.451 911.353 127.59L937.662 97.1362C947.953 100.182 957.737 106.272 967.014 115.409C968.174 132.086 973.609 149.271 983.321 166.963V176.099L980.06 236.79V267.244C980.929 278.7 979.842 292.912 976.798 309.88V330.98L986.582 346.207C996.294 359.549 1007.09 361.579 1018.98 352.298C1023.91 342.291 1026.08 330.182 1025.5 315.97C1037.53 300.888 1045.14 281.601 1048.33 258.108C1051.23 247.231 1055.58 236.137 1061.38 224.826L1064.64 203.508L1067.9 188.281L1080.95 157.827L1084.21 142.6L1090.73 127.59L1097.25 109.318Z" fill="white"/>
<path d="M1189.88 170.879C1205.24 129.548 1236.84 102.864 1284.67 90.8279C1327.87 85.8972 1368.31 98.7314 1406 129.331C1406.29 166.31 1388.53 189.078 1352.73 197.635C1354.03 221.418 1350.05 247.086 1340.77 274.64V283.559C1342.51 301.976 1340.55 324.672 1334.9 351.645L1332.07 369.483V390.148L1329.03 399.067L1332.07 419.732V443.442C1311.49 497.39 1287.79 506.308 1260.97 470.199L1255.1 473.026C1255.54 462.44 1254.52 451.636 1252.06 440.615C1254.96 429.303 1254.96 416.469 1252.06 402.112C1254.67 385.58 1255.68 365.785 1255.1 342.727V253.975C1254.38 243.098 1255.32 230.191 1257.93 215.254C1223 218.445 1200.31 203.653 1189.88 170.879Z" fill="white"/>
<path d="M169.062 124.762L219.505 91.0454C228.782 100.762 241.9 110.115 258.859 119.107L253.206 141.512C310.171 261.443 300.822 379.489 225.158 495.649L204.72 445.618C197.327 449.098 198.56 420.819 208.416 360.781L143.406 373.833L118.402 461.932L90.354 489.994C76.2938 486.368 63.1758 477.014 51 461.932L56.6531 383.187C65.2051 359.984 75.3517 336.563 87.0927 312.925L84.2661 285.299L94.92 258.543L119.924 243.316L146.45 164.135L169.062 124.762ZM171.236 295.523L208.634 292.477L194.936 238.965L171.236 295.523Z" stroke="black" stroke-width="98" mask="url(#path-1-outside-1_37_875)"/>
<path d="M341.481 126.285C357.715 110.043 379.385 97.7888 406.491 89.5227C450.121 89.8127 494.548 104.025 539.773 132.158L536.946 140.642C584.78 169.356 579.054 208.076 519.77 256.803C577.605 303.499 582.388 358.316 534.12 421.254C513.247 470.851 472.588 492.604 412.144 486.513C373.007 498.115 334.306 492.459 296.039 469.546C296.908 462.73 298.793 456.059 301.692 449.533L307.345 426.91V407.115L310.171 398.631V376.008C313.65 367.887 315.535 358.389 315.824 347.512L321.477 336.201V324.889C312.491 311.837 310.606 297.625 315.824 282.253C330.899 248.609 338.437 208.946 338.437 163.265L341.481 143.47V126.285ZM460.412 251.147C494.186 199.81 477.154 175.229 409.317 177.404C407.578 185.961 406.636 196.329 406.491 208.511L403.664 228.524V245.491L400.838 253.975V262.458C417.507 262.168 437.365 258.398 460.412 251.147ZM468.892 387.32C484.692 366.872 487.518 344.177 477.372 319.233C457.369 326.629 434.684 330.4 409.317 330.545L392.358 336.201C378.008 374.051 376.124 398.631 386.705 409.943C423.378 427.635 450.773 420.094 468.892 387.32Z" stroke="black" stroke-width="98" mask="url(#path-1-outside-1_37_875)"/>
<path d="M742.848 97.3537C745.023 96.7737 747.124 94.6709 749.154 91.0454C827.427 117.584 869.463 176.462 875.261 267.679C852.358 372.093 789.305 446.705 686.1 491.516C675.374 492.677 663.85 491.661 651.53 488.471C589.926 457.727 566.806 406.172 582.171 333.808L569.56 295.958L591.52 239.183L594.781 229.829L604.131 204.596L607.392 195.024L638.919 154.129L645.224 147.82L661.749 106.272L673.707 101.922C682.549 113.378 699.291 111.856 723.932 97.3537H742.848ZM783.942 273.987C777.274 231.497 759.373 207.278 730.238 201.333C725.164 212.789 716.757 224.391 705.016 236.137L689.362 261.371L679.795 273.987C677.911 287.909 678.998 304.731 683.056 324.454C678.853 350.558 683.056 376.806 695.667 403.2C736.688 373.036 766.113 329.965 783.942 273.987Z" stroke="black" stroke-width="98" mask="url(#path-1-outside-1_37_875)"/>
<path d="M1097.25 109.318L1119.86 88L1123.13 97.1362C1146.32 93.5107 1163.71 102.647 1175.31 124.545C1176.18 156.014 1168.57 191.399 1152.48 230.699L1145.96 261.153L1142.69 270.289C1142.84 280.586 1140.66 291.752 1136.17 303.789L1132.91 319.016C1131.46 328.877 1128.2 339.971 1123.13 352.298V370.57C1121.24 388.553 1123.42 408.783 1129.65 431.261V440.397L1126.39 452.579C1107.83 476.072 1085.58 491.879 1059.64 500L1028.76 458.669C957.592 491.444 910.918 470.199 888.741 394.933C886.857 383.042 886.857 367.815 888.741 349.252L890.046 291.172C880.189 258.978 887.291 204.451 911.353 127.59L937.662 97.1362C947.953 100.182 957.737 106.272 967.014 115.409C968.174 132.086 973.609 149.271 983.321 166.963V176.099L980.06 236.79V267.244C980.929 278.7 979.842 292.912 976.798 309.88V330.98L986.582 346.207C996.294 359.549 1007.09 361.579 1018.98 352.298C1023.91 342.291 1026.08 330.182 1025.5 315.97C1037.53 300.888 1045.14 281.601 1048.33 258.108C1051.23 247.231 1055.58 236.137 1061.38 224.826L1064.64 203.508L1067.9 188.281L1080.95 157.827L1084.21 142.6L1090.73 127.59L1097.25 109.318Z" stroke="black" stroke-width="98" mask="url(#path-1-outside-1_37_875)"/>
<path d="M1189.88 170.879C1205.24 129.548 1236.84 102.864 1284.67 90.8279C1327.87 85.8972 1368.31 98.7314 1406 129.331C1406.29 166.31 1388.53 189.078 1352.73 197.635C1354.03 221.418 1350.05 247.086 1340.77 274.64V283.559C1342.51 301.976 1340.55 324.672 1334.9 351.645L1332.07 369.483V390.148L1329.03 399.067L1332.07 419.732V443.442C1311.49 497.39 1287.79 506.308 1260.97 470.199L1255.1 473.026C1255.54 462.44 1254.52 451.636 1252.06 440.615C1254.96 429.303 1254.96 416.469 1252.06 402.112C1254.67 385.58 1255.68 365.785 1255.1 342.727V253.975C1254.38 243.098 1255.32 230.191 1257.93 215.254C1223 218.445 1200.31 203.653 1189.88 170.879Z" stroke="black" stroke-width="98" mask="url(#path-1-outside-1_37_875)"/>
</svg>
