<svg width="1920" height="1190" viewBox="0 0 1920 1190" fill="none" xmlns="http://www.w3.org/2000/svg">
<g clip-path="url(#clip0_38_876)">
<path d="M-31.5623 1116.61C-57.0214 1080 -89.6806 1049.69 -130.479 1035.04C-213.738 1005.16 -298.59 1060.8 -344.943 1133.06C-356.053 1150.37 -365.458 1168.97 -373.537 1188.18H-314.403C-313.248 1186.11 -312.241 1183.96 -311.044 1181.89C-293.284 1151.66 -270.418 1125.13 -241.47 1107.65C-214.211 1091.11 -182.835 1083.88 -153.923 1092.15C-125.768 1100.24 -100.507 1122.38 -82.8507 1146.75C-73.5663 1159.58 -65.703 1173.71 -58.5889 1188.18H6.41954C4.56781 1183.79 2.86259 1179.39 0.91613 1175.17C-8.36833 1154.68 -18.8759 1134.87 -31.5623 1116.61Z" fill="#B91C24"/>
<path d="M1046.04 1118.33C1020.58 1081.73 987.921 1051.41 947.114 1036.77C863.855 1006.97 779.003 1062.52 732.65 1134.78C721.54 1152.09 712.143 1170.7 704.064 1189.9H763.191C764.353 1187.84 765.352 1185.68 766.549 1183.62C784.309 1153.39 807.175 1126.86 836.123 1109.37C863.39 1092.84 894.758 1085.61 923.679 1093.87C951.834 1101.97 977.095 1124.1 994.751 1148.48C1004.03 1161.4 1011.89 1175.44 1019.01 1189.9H1084.02C1082.16 1185.6 1080.46 1181.12 1078.51 1176.9C1069.23 1156.4 1058.72 1136.59 1046.04 1118.33Z" fill="#B91C24"/>
<path d="M1038.85 866.757C970.535 831.962 893.693 827.656 822.355 854.872C750.198 882.346 690.133 934.28 645.631 1000.85C607.727 1057.61 581.871 1122.38 565.766 1189.9H604.85C645.269 1075.96 706.746 968.3 815.12 918.691C874.022 891.82 937.601 887.944 996.916 913.352C1052.66 937.123 1101.54 988.196 1134.56 1041.76C1163.09 1088.1 1184.01 1138.31 1202.02 1189.9H1267.44C1222.41 1058.99 1160.68 928.682 1038.85 866.757Z" fill="#B91C24"/>
<path d="M2123.63 1116.61C2098.17 1080 2065.52 1049.69 2024.7 1035.04C1941.45 1005.16 1856.6 1060.8 1810.25 1133.06C1799.14 1150.37 1789.73 1168.97 1781.65 1188.18H1840.79C1841.94 1186.11 1842.95 1183.96 1844.15 1181.89C1861.91 1151.66 1884.76 1125.13 1913.72 1107.65C1940.98 1091.11 1972.35 1083.88 2001.27 1092.15C2029.42 1100.24 2054.68 1122.38 2072.34 1146.75C2081.61 1159.58 2089.49 1173.71 2096.61 1188.18H2161.61C2159.77 1183.79 2158.04 1179.39 2156.11 1175.17C2146.82 1154.68 2136.31 1134.87 2123.63 1116.61Z" fill="#B91C24"/>
<path d="M2116.44 864.945C2048.13 830.236 1971.28 825.93 1899.95 853.146C1827.79 880.62 1767.73 932.555 1723.23 999.129C1685.33 1055.89 1659.47 1120.66 1643.36 1188.18H1682.44C1722.87 1074.24 1784.34 966.489 1892.72 916.966C1951.62 890.008 2015.2 886.219 2074.51 911.54C2130.25 935.397 2179.14 986.47 2212.14 1040.04C2240.68 1086.38 2261.61 1136.59 2279.61 1188.18H2345.03C2300 1057.26 2238.28 926.87 2116.44 864.945Z" fill="#B91C24"/>
<path d="M-38.753 864.945C-107.069 830.236 -183.902 825.93 -255.241 853.146C-327.407 880.62 -387.463 932.555 -431.965 999.129C-469.872 1055.89 -495.724 1120.66 -511.836 1188.18H-472.756C-432.326 1074.24 -370.858 966.489 -262.476 916.966C-203.582 890.008 -139.995 886.219 -80.688 911.54C-24.9468 935.397 23.9387 986.47 56.9511 1040.04C85.4848 1086.38 106.414 1136.59 124.414 1188.18H189.845C144.809 1057.26 83.0819 926.87 -38.753 864.945Z" fill="#B91C24"/>
<path d="M1728.52 784.162C1689.84 689.508 1596.05 621.554 1492.71 620.004C1441.83 619.229 1390.31 635.335 1348.12 663.584C1326.98 677.795 1308.85 695.02 1293.21 715.088C1276.81 736.103 1261.65 758.151 1251.14 782.783C1234.57 769.262 1217.43 756.601 1199.43 745.06C1193.19 741.012 1186.73 737.395 1180.16 733.95C1176.09 731.796 1162.39 727.748 1160.49 723.7C1155.55 713.107 1169.84 690.714 1174.97 681.843C1222.56 599.592 1305.7 535.083 1400.25 518.633C1486.34 503.647 1575.25 535.514 1642.66 588.998C1654.15 598.042 1665.09 607.946 1675.35 618.368C1714.93 658.761 1738.22 705.442 1757.22 757.979C1757.63 759.099 1758.21 759.96 1758.67 761.08C1748.41 768.4 1738.42 776.152 1728.52 784.162ZM1663.59 842.9C1657.63 849.359 1651.41 855.561 1645.55 862.192C1642.13 865.982 1638.81 869.944 1635.48 873.906C1609.5 824.21 1547.12 806.382 1493.9 818.268C1465.25 824.641 1439.03 842.297 1418.05 862.278C1407.65 872.183 1398.43 883.207 1389.74 894.576C1384.62 901.38 1378.72 908.787 1374.25 916.624C1346.55 876.748 1314.89 840.316 1279.81 807.846C1286.98 799.406 1292.75 790.19 1299.21 780.975C1306.25 770.984 1315.77 761.941 1324.26 753.07C1335.02 741.787 1346.36 731.107 1358.82 721.72C1369.28 713.882 1381.09 704.408 1392.59 698.379C1421.46 683.393 1457.95 678.398 1490.05 680.723C1497.11 680.723 1504.53 682.274 1511.42 683.565C1544.37 690.111 1575.2 705.786 1600.79 727.404C1632.35 754.017 1663.19 784.075 1682.79 820.851C1683.81 822.746 1666.03 840.23 1663.59 842.9ZM695.481 752.381C683.044 760.821 670.883 769.778 658.938 778.994C646.527 762.888 629.715 748.505 615.099 736.275C595.85 720.255 575.222 705.786 553.053 694.073C508.052 670.216 458.503 656.005 407.62 653.163C316.437 648.167 199.96 681.24 145.295 759.357C136.381 752.811 131.127 749.28 121.834 743.337C95.8667 726.629 68.5474 712.504 40.4012 700.791C40.5734 700.446 40.7457 700.102 40.9265 699.757C45.0434 691.661 57.1356 683.479 63.5348 676.848C71.6393 668.493 79.7611 660.225 88.2015 652.215C114.858 626.894 143.684 608.635 178.566 596.836C213.998 584.864 251.222 579.18 288.326 575.476C339.321 570.481 390.928 568.931 441.666 575.993C481.275 581.505 520.386 592.357 556.275 610.186C593.361 628.617 622.446 656.091 649.395 687.097C666.474 706.734 680.702 730.849 698.142 750.658C697.264 751.175 696.36 751.778 695.481 752.381ZM567.953 863.915C563.406 868.996 559.013 876.489 553.63 880.623C547.291 885.533 544.802 881.915 538.972 876.834C515.321 856.336 490.276 839.799 460.183 829.722C403.331 810.516 329.606 819.56 281.832 857.455C276.931 861.331 272.306 865.379 267.862 869.771C266.828 870.805 265.803 871.752 264.813 872.786C236.891 838.335 205.954 806.985 171.856 779.425C204.102 757.893 236.279 736.189 273.297 723.356C315.843 708.542 359.802 701.652 404.812 705.528C446.532 709.145 487.545 723.442 523.555 744.543C542.425 755.567 559.935 768.486 575.868 783.472C588.348 795.186 598.158 809.138 609.079 822.057C594.868 835.493 581.001 849.273 567.953 863.915ZM2512.31 1018.86C2457.81 906.117 2378.88 808.535 2277.03 743.337C2179.09 680.551 2062.93 650.234 1949.81 672.111C1905.79 680.637 1863.5 697.776 1823.58 719.739C1807.04 670.474 1774.54 624.224 1739.31 587.534C1698.79 545.332 1649.41 512.776 1595.1 491.244C1538.39 468.851 1475.7 460.928 1415.28 469.196C1351.84 477.809 1295.47 507.178 1247.48 548.949C1198.25 591.754 1154.59 646.875 1125.07 705.356C1125.37 704.753 1126.86 705.614 1128.84 707.078C1127.58 706.475 1126.34 705.872 1125.07 705.356C1045.19 670.646 957.832 657.297 872.213 673.833C834.894 681.068 798.799 694.504 764.339 711.815C750.766 687.183 728.442 664.015 710.303 643.258C689.685 619.659 667.016 598.472 641.91 579.697C589.95 540.767 527.853 522.595 464.059 515.618C360.026 504.25 253.082 513.637 155.432 552.739C106.96 572.117 66.0755 602.348 31.8746 641.966C31.5646 642.311 31.2459 642.655 30.9359 643C24.3988 650.665 18.146 658.503 12.1947 666.599C7.69025 672.714 3.40117 679.087 0.817369 686.149C-65.8103 664.962 -136.159 658.675 -205.379 672.111C-268.467 684.254 -328.161 714.054 -382.119 750.658C-428.473 782.094 -471.695 819.56 -509.645 862.192C-552.063 909.734 -588.054 963.65 -613.946 1023.51C-635.962 1074.49 -654.194 1131.25 -656.633 1188.18H-626.394C-616.308 1144.77 -604.826 1102.14 -586.066 1061.75C-563.612 1013.34 -534.403 968.214 -501.056 927.821C-429.877 841.608 -334.371 769.434 -230.476 738.342C-131.74 708.801 -27.105 728.524 62.5357 779.252C158.179 833.426 231.654 917.83 285.199 1018.43C314.594 1073.63 335.833 1128.15 353.661 1188.18H420.961C404.166 1129.96 383.254 1072.86 357.115 1018.86C338.081 979.497 316.007 942.032 291.082 907.064C296.93 901.897 302.993 896.987 309.315 892.509C327.255 879.848 347.452 871.322 369.13 867.618C396.621 863.054 425.198 867.446 450.123 879.848C475.944 892.767 492.007 915.419 514.848 932.3C495.176 961.496 477.847 992.416 463.654 1025.32C441.631 1076.22 423.407 1132.98 420.961 1189.9H451.2C461.285 1146.5 472.766 1103.86 491.524 1063.47C513.986 1015.07 543.192 969.937 576.54 929.543C647.724 843.331 743.221 771.156 847.124 740.065C945.852 710.523 1050.5 730.246 1140.13 780.975C1235.77 835.148 1309.25 919.553 1362.8 1020.15C1392.19 1075.44 1413.43 1129.87 1431.25 1189.9H1498.56C1481.76 1131.68 1460.85 1074.58 1434.71 1020.58C1421.51 993.277 1406.86 966.922 1390.83 941.601C1398.08 936.003 1404.21 928.596 1410.62 922.223C1418.96 913.954 1427.72 905.859 1437.2 898.882C1455.7 885.188 1476.19 875.025 1498.99 871.063C1525.17 866.499 1537.34 872.441 1546.28 876.059C1547.06 876.403 1550.91 878.212 1551.36 878.384C1553.55 879.59 1555.71 880.796 1557.82 882.088C1559.45 883.121 1561.04 884.241 1562.6 885.36C1563.29 885.963 1565.1 887.427 1565.52 887.858C1574.34 896.815 1583.09 906.117 1589.45 917.055C1597.05 930.06 1588.43 936.261 1581.24 947.716C1566.06 971.918 1552.61 997.239 1541.25 1023.51C1519.23 1074.49 1501 1131.25 1498.56 1188.18H1528.8C1538.89 1144.77 1550.37 1102.14 1569.13 1061.75C1591.58 1013.34 1620.79 968.214 1654.14 927.821C1725.32 841.608 1820.82 769.434 1924.72 738.342C2023.45 708.801 2128.09 728.524 2217.73 779.252C2313.37 833.426 2386.85 917.83 2440.4 1018.43C2469.8 1073.63 2491.03 1128.15 2508.85 1188.18H2576.16C2559.36 1129.96 2538.45 1072.86 2512.31 1018.86Z" fill="#B91C24"/>
<path d="M34.6392 706.216C34.4755 705.614 34.1828 705.097 33.7521 704.666C33.4507 704.236 33.0459 703.805 32.5291 703.46C31.8745 702.857 31.0908 702.513 30.2037 702.255C30.1865 702.255 30.1692 702.255 30.1606 702.255C28.4811 701.91 28.7912 701.996 27.5166 702.082C27.2151 702.168 26.9309 702.168 26.6294 702.255H26.6208C26.2763 702.341 26.9998 702.082 25.7596 702.599C25.1825 702.771 24.6744 703.03 24.2523 703.46C23.7356 703.805 23.3307 704.236 23.0207 704.666C22.5987 705.097 22.3058 705.614 22.1422 706.216C21.7201 706.992 21.5221 707.939 21.5566 708.886C21.6427 709.489 21.7202 710.092 21.7977 710.695C22.0303 711.212 22.2628 711.729 22.4867 712.331C22.8484 712.762 23.2015 713.193 23.5547 713.709C24.0197 714.054 24.4762 714.398 24.9413 714.743C25.4839 715.001 26.0351 715.174 26.5691 715.432C27.1806 715.518 27.7835 715.604 28.3864 715.69C28.9979 715.604 29.6008 715.518 30.2037 715.432C30.7463 715.174 31.2974 715.001 31.84 714.743C32.3051 714.398 32.7617 714.054 33.2182 713.709C33.5799 713.193 33.933 712.762 34.2861 712.331C34.7943 711.47 35.0612 710.695 35.1043 709.748C35.2679 709.145 35.2679 708.542 35.1043 707.939C35.0957 707.336 34.9406 706.733 34.6392 706.216Z" fill="#B91C24"/>
</g>
<defs>
<clipPath id="clip0_38_876">
<rect width="1920" height="1190" fill="white"/>
</clipPath>
</defs>
</svg>
