<svg width="1531" height="359" viewBox="0 0 1531 359" fill="none" xmlns="http://www.w3.org/2000/svg">
<mask id="path-1-outside-1_38_889" maskUnits="userSpaceOnUse" x="0" y="0" width="1531" height="359" fill="black">
<rect fill="white" width="1531" height="359"/>
<path d="M59.6282 73.5576C65.3158 70.2805 70.831 65.2788 76.1739 58.5523H79.5347C86.4288 57.7761 93.0643 60.5357 99.4412 66.831C100.648 77.352 99.5274 88.994 96.0804 101.757L94.4 113.399V118.315L92.7196 121.678C92.7196 125.3 92.2025 129.741 91.1684 135.002C90.8237 139.917 89.7034 145.436 87.8076 151.559V158.286L104.353 164.883L115.987 169.928H121.028L124.389 171.609L136.023 173.162L147.527 174.843C153.559 156.216 155.8 134.614 154.249 110.036L155.929 105.12V95.16L154.249 91.7967L149.208 85.1996C158.514 57.9486 174.026 52.9469 195.742 70.1943V119.996C195.742 123.618 195.182 128.059 194.062 133.32V143.28C194.062 146.902 193.502 151.344 192.381 156.604V161.649L190.701 168.246C190.96 172.213 192.08 176.094 194.062 179.888V198.127L187.469 216.366C184.97 221.799 183.29 228.483 182.428 236.417L180.748 241.332L177.516 246.377L175.836 251.293L174.155 258.019L172.475 262.935L169.114 267.979C167.477 271.17 165.839 275.611 164.202 281.303L150.888 297.861C144.425 283.287 141.667 266.125 142.615 246.377C142.098 238.874 139.901 229.992 136.023 219.73V214.814C124.992 213.607 110.558 210.287 92.7196 204.854L89.488 203.172L84.4467 201.49L81.2151 199.809L76.1739 231.372L74.4935 238.098L72.813 241.332V246.377L56.2674 281.303L54.5869 286.219C51.2261 288.461 46.7881 290.66 41.2728 292.816L38.0413 277.94L36.3608 269.661C36.447 267.936 35.8869 266.255 34.6804 264.616L33 233.053C36.1885 223.395 38.9461 210.632 41.2728 194.764L42.9533 183.251C43.1256 177.473 44.2459 171.351 46.3141 164.883C45.797 160.571 46.3572 156.13 47.9945 151.559V146.644C49.3733 141.383 50.4505 134.743 51.2261 126.723C52.2602 123.705 52.8203 119.263 52.9065 113.399L56.2674 100.076V95.16C58.077 89.2958 59.1973 82.095 59.6282 73.5576Z"/>
<path d="M300.187 62.5623C301.479 62.2174 302.729 60.9669 303.935 58.811C350.47 74.5924 375.461 109.605 378.908 163.848C365.292 225.939 327.806 270.308 266.449 296.955C260.072 297.645 253.221 297.041 245.896 295.144C209.272 276.862 195.527 246.205 204.661 203.172L197.164 180.664L210.22 146.902L212.159 141.34L217.717 126.335L219.656 120.643L238.399 96.3242L242.148 92.5729L251.972 67.8659L259.081 65.2788C264.338 72.0915 274.291 71.186 288.941 62.5623H300.187ZM324.618 167.599C320.654 142.332 310.011 127.93 292.69 124.394C289.673 131.207 284.675 138.106 277.695 145.091L268.388 160.097L262.701 167.599C261.58 175.878 262.227 185.882 264.64 197.61C262.14 213.133 264.64 228.741 272.137 244.437C296.524 226.499 314.018 200.887 324.618 167.599Z"/>
<path d="M385.888 86.2344C388.818 75.4548 395.54 66.1411 406.053 58.2936C413.206 57.8624 420.402 59.9321 427.64 64.5026L433.845 100.076L435.396 106.285C435.482 110.683 436.516 115.857 438.498 121.807C438.843 129.137 440.394 137.934 443.152 148.196C443.066 149.748 443.583 151.3 444.703 152.853V160.614L447.805 168.375C447.719 170.79 448.236 173.377 449.357 176.137L450.908 185.321L452.459 191.53C461.507 176.784 462.024 160.269 454.01 141.987L458.663 132.673C470.383 122.152 483.267 118.013 497.313 120.255L505.069 112.494C506.275 112.666 507.309 113.701 508.171 115.598C510.412 130.862 509.895 148.972 506.62 169.928C509.033 174.412 511.618 180.578 514.376 188.426C517.478 195.238 520.063 203.517 522.132 213.262L523.683 216.366L525.234 222.576C528.939 217.919 532.559 211.71 536.092 203.948L546.95 182.216C548.415 178.077 550.483 173.463 553.155 168.375L554.706 165.271L556.257 160.614L557.808 157.51L559.359 152.853C562.806 147.592 565.866 140.866 568.537 132.673L571.639 126.464L574.742 123.36L576.293 118.703L579.395 114.046L582.498 107.837C586.634 100.765 592.839 94.5994 601.111 89.339C600.767 99.8599 598.181 111.2 593.356 123.36C594.562 143.539 590.426 164.193 580.946 185.321C574.483 230.251 551.259 268.497 511.274 300.06C509.119 293.247 505.5 284.968 500.415 275.223L498.864 270.567L495.762 267.462C496.451 258.838 494.426 249.568 489.687 239.65C489.17 234.994 488.135 229.819 486.584 224.128C482.448 231.027 478.828 240.34 475.726 252.069L472.624 255.173V259.83C470.987 263.279 468.401 267.376 464.868 272.119L461.766 279.88C458.319 282.726 454.182 286.865 449.357 292.298H436.947C430.484 281.087 426.348 267.678 424.538 252.069C424.107 247.929 422.599 243.79 420.014 239.65C421.048 223.352 417.946 205.242 410.707 185.321C410.362 175.921 408.294 165.098 404.502 152.853C404.502 147.678 403.468 141.987 401.4 135.778L399.849 126.464L398.298 115.598C391.404 107.578 387.267 97.7902 385.888 86.2344Z"/>
<path d="M659.021 106.285C668.156 81.707 686.942 65.8393 715.38 58.6816C741.06 55.7496 765.103 63.3816 787.509 81.5776C787.681 103.568 777.125 117.107 755.839 122.195C756.615 136.338 754.245 151.602 748.73 167.987V173.291C749.764 184.243 748.601 197.739 745.24 213.779L743.559 224.386V236.675L741.75 241.979L743.559 254.268V268.367C731.322 300.448 717.233 305.751 701.29 284.278L697.8 285.96C698.059 279.665 697.456 273.24 695.991 266.686C697.714 259.959 697.714 252.327 695.991 243.79C697.542 233.959 698.145 222.187 697.8 208.476V155.699C697.369 149.231 697.929 141.556 699.481 132.673C678.712 134.57 665.226 125.774 659.021 106.285Z"/>
<path d="M865.067 62.5623C866.359 62.2174 867.609 60.9669 868.815 58.811C915.35 74.5924 940.341 109.605 943.788 163.848C930.172 225.939 892.686 270.308 831.329 296.955C824.952 297.645 818.101 297.041 810.776 295.144C774.152 276.862 760.407 246.205 769.541 203.172L762.044 180.664L775.1 146.902L777.039 141.34L782.597 126.335L784.536 120.643L803.279 96.3242L807.028 92.5729L816.852 67.8659L823.961 65.2788C829.218 72.0915 839.171 71.186 853.821 62.5623H865.067ZM889.497 167.599C885.533 142.332 874.891 127.93 857.569 124.394C854.553 131.207 849.555 138.106 842.575 145.091L833.268 160.097L827.58 167.599C826.46 175.878 827.106 185.882 829.519 197.61C827.02 213.133 829.519 228.741 837.017 244.437C861.404 226.499 878.898 200.887 889.497 167.599Z"/>
<path d="M1025.35 79.7666C1035 70.1081 1047.89 62.821 1064 57.9055C1089.94 58.078 1116.35 66.5292 1143.24 83.2592L1141.56 88.3041C1170 105.379 1166.59 128.404 1131.35 157.38C1165.73 185.149 1168.58 217.746 1139.88 255.173C1127.47 284.666 1103.3 297.602 1067.36 293.98C1044.1 300.879 1021.09 297.516 998.337 283.89C998.854 279.837 999.974 275.87 1001.7 271.989L1005.06 258.536V246.765L1006.74 241.72V228.267C1008.81 223.438 1009.93 217.789 1010.1 211.322L1013.46 204.595V197.869C1008.12 190.107 1007 181.656 1010.1 172.515C1019.06 152.508 1023.54 128.922 1023.54 101.757L1025.35 89.9857V79.7666ZM1096.06 154.017C1116.14 123.489 1106.01 108.872 1065.68 110.165C1064.65 115.253 1064.09 121.419 1064 128.663L1062.32 140.564V150.654L1060.64 155.699V160.743C1070.55 160.571 1082.36 158.329 1096.06 154.017ZM1101.1 234.994C1110.49 222.834 1112.17 209.338 1106.14 194.505C1094.25 198.903 1080.76 201.146 1065.68 201.232L1055.6 204.595C1047.07 227.103 1045.95 241.72 1052.24 248.447C1074.04 258.968 1090.33 254.483 1101.1 234.994Z"/>
<path d="M1290.86 69.6769L1304.3 57L1306.24 62.4329C1320.03 60.277 1330.37 65.71 1337.26 78.7318C1337.78 97.4453 1333.26 118.487 1323.69 141.857L1319.81 159.967L1317.88 165.4C1317.96 171.523 1316.67 178.163 1314 185.321L1312.06 194.376C1311.2 200.24 1309.26 206.837 1306.24 214.167V225.033C1305.12 235.727 1306.41 247.757 1310.12 261.124V266.556L1308.18 273.8C1297.15 287.771 1283.92 297.171 1268.5 302L1250.14 277.422C1207.83 296.912 1180.08 284.278 1166.9 239.521C1165.78 232.45 1165.78 223.395 1166.9 212.356L1167.67 177.818C1161.81 158.674 1166.03 126.249 1180.34 80.5428L1195.98 62.4329C1202.1 64.2439 1207.92 67.8659 1213.43 73.2988C1214.12 83.2161 1217.35 93.4352 1223.13 103.956V109.389L1221.19 145.479V163.589C1221.7 170.402 1221.06 178.853 1219.25 188.943V201.49L1225.06 210.545C1230.84 218.479 1237.26 219.687 1244.32 214.167C1247.25 208.217 1248.55 201.016 1248.2 192.565C1255.36 183.596 1259.88 172.127 1261.78 158.156C1263.5 151.688 1266.08 145.091 1269.53 138.365L1271.47 125.688L1273.41 116.633L1281.16 98.5232L1283.1 89.4683L1286.98 80.5428L1290.86 69.6769Z"/>
<path d="M1378.89 62.1742L1380.57 58.811L1387.29 60.4926C1394.61 78.8611 1407.97 94.4701 1427.36 107.319C1448.56 76.619 1471.44 64.9338 1496 72.264C1493.33 96.0655 1481.05 117.237 1459.16 135.778C1459.33 142.59 1458.21 150.438 1455.8 159.32C1455.37 165.961 1453.73 173.765 1450.89 182.734V201.102L1439.12 237.969L1435.76 254.656C1431.8 259.485 1427.88 266.212 1424 274.835L1420.64 276.517L1415.73 288.159L1414.05 291.522L1410.69 294.885C1406.89 301.095 1404.65 299.973 1403.96 291.522C1396.04 284.192 1392.68 274.145 1393.88 261.382L1392.2 241.332C1397.54 230.984 1400.91 218.134 1402.28 202.784C1404.35 197.869 1406.03 191.185 1407.33 182.734L1409.01 177.689C1406.59 171.135 1402.67 163.891 1397.24 155.957C1395.43 150.697 1394.87 144.531 1395.56 137.459C1391.17 131.681 1384.49 126.119 1375.53 120.772L1372.17 115.728L1368.81 112.364L1363.76 109.001L1360.4 105.638L1355.49 102.404C1355.06 101.283 1353.94 100.162 1352.13 99.0407H1347.09L1345.41 90.6325C1352.56 79.163 1363.72 69.6769 1378.89 62.1742Z"/>
</mask>
<path d="M59.6282 73.5576C65.3158 70.2805 70.831 65.2788 76.1739 58.5523H79.5347C86.4288 57.7761 93.0643 60.5357 99.4412 66.831C100.648 77.352 99.5274 88.994 96.0804 101.757L94.4 113.399V118.315L92.7196 121.678C92.7196 125.3 92.2025 129.741 91.1684 135.002C90.8237 139.917 89.7034 145.436 87.8076 151.559V158.286L104.353 164.883L115.987 169.928H121.028L124.389 171.609L136.023 173.162L147.527 174.843C153.559 156.216 155.8 134.614 154.249 110.036L155.929 105.12V95.16L154.249 91.7967L149.208 85.1996C158.514 57.9486 174.026 52.9469 195.742 70.1943V119.996C195.742 123.618 195.182 128.059 194.062 133.32V143.28C194.062 146.902 193.502 151.344 192.381 156.604V161.649L190.701 168.246C190.96 172.213 192.08 176.094 194.062 179.888V198.127L187.469 216.366C184.97 221.799 183.29 228.483 182.428 236.417L180.748 241.332L177.516 246.377L175.836 251.293L174.155 258.019L172.475 262.935L169.114 267.979C167.477 271.17 165.839 275.611 164.202 281.303L150.888 297.861C144.425 283.287 141.667 266.125 142.615 246.377C142.098 238.874 139.901 229.992 136.023 219.73V214.814C124.992 213.607 110.558 210.287 92.7196 204.854L89.488 203.172L84.4467 201.49L81.2151 199.809L76.1739 231.372L74.4935 238.098L72.813 241.332V246.377L56.2674 281.303L54.5869 286.219C51.2261 288.461 46.7881 290.66 41.2728 292.816L38.0413 277.94L36.3608 269.661C36.447 267.936 35.8869 266.255 34.6804 264.616L33 233.053C36.1885 223.395 38.9461 210.632 41.2728 194.764L42.9533 183.251C43.1256 177.473 44.2459 171.351 46.3141 164.883C45.797 160.571 46.3572 156.13 47.9945 151.559V146.644C49.3733 141.383 50.4505 134.743 51.2261 126.723C52.2602 123.705 52.8203 119.263 52.9065 113.399L56.2674 100.076V95.16C58.077 89.2958 59.1973 82.095 59.6282 73.5576Z" fill="white"/>
<path d="M300.187 62.5623C301.479 62.2174 302.729 60.9669 303.935 58.811C350.47 74.5924 375.461 109.605 378.908 163.848C365.292 225.939 327.806 270.308 266.449 296.955C260.072 297.645 253.221 297.041 245.896 295.144C209.272 276.862 195.527 246.205 204.661 203.172L197.164 180.664L210.22 146.902L212.159 141.34L217.717 126.335L219.656 120.643L238.399 96.3242L242.148 92.5729L251.972 67.8659L259.081 65.2788C264.338 72.0915 274.291 71.186 288.941 62.5623H300.187ZM324.618 167.599C320.654 142.332 310.011 127.93 292.69 124.394C289.673 131.207 284.675 138.106 277.695 145.091L268.388 160.097L262.701 167.599C261.58 175.878 262.227 185.882 264.64 197.61C262.14 213.133 264.64 228.741 272.137 244.437C296.524 226.499 314.018 200.887 324.618 167.599Z" fill="white"/>
<path d="M385.888 86.2344C388.818 75.4548 395.54 66.1411 406.053 58.2936C413.206 57.8624 420.402 59.9321 427.64 64.5026L433.845 100.076L435.396 106.285C435.482 110.683 436.516 115.857 438.498 121.807C438.843 129.137 440.394 137.934 443.152 148.196C443.066 149.748 443.583 151.3 444.703 152.853V160.614L447.805 168.375C447.719 170.79 448.236 173.377 449.357 176.137L450.908 185.321L452.459 191.53C461.507 176.784 462.024 160.269 454.01 141.987L458.663 132.673C470.383 122.152 483.267 118.013 497.313 120.255L505.069 112.494C506.275 112.666 507.309 113.701 508.171 115.598C510.412 130.862 509.895 148.972 506.62 169.928C509.033 174.412 511.618 180.578 514.376 188.426C517.478 195.238 520.063 203.517 522.132 213.262L523.683 216.366L525.234 222.576C528.939 217.919 532.559 211.71 536.092 203.948L546.95 182.216C548.415 178.077 550.483 173.463 553.155 168.375L554.706 165.271L556.257 160.614L557.808 157.51L559.359 152.853C562.806 147.592 565.866 140.866 568.537 132.673L571.639 126.464L574.742 123.36L576.293 118.703L579.395 114.046L582.498 107.837C586.634 100.765 592.839 94.5994 601.111 89.339C600.767 99.8599 598.181 111.2 593.356 123.36C594.562 143.539 590.426 164.193 580.946 185.321C574.483 230.251 551.259 268.497 511.274 300.06C509.119 293.247 505.5 284.968 500.415 275.223L498.864 270.567L495.762 267.462C496.451 258.838 494.426 249.568 489.687 239.65C489.17 234.994 488.135 229.819 486.584 224.128C482.448 231.027 478.828 240.34 475.726 252.069L472.624 255.173V259.83C470.987 263.279 468.401 267.376 464.868 272.119L461.766 279.88C458.319 282.726 454.182 286.865 449.357 292.298H436.947C430.484 281.087 426.348 267.678 424.538 252.069C424.107 247.929 422.599 243.79 420.014 239.65C421.048 223.352 417.946 205.242 410.707 185.321C410.362 175.921 408.294 165.098 404.502 152.853C404.502 147.678 403.468 141.987 401.4 135.778L399.849 126.464L398.298 115.598C391.404 107.578 387.267 97.7902 385.888 86.2344Z" fill="white"/>
<path d="M659.021 106.285C668.156 81.707 686.942 65.8393 715.38 58.6816C741.06 55.7496 765.103 63.3816 787.509 81.5776C787.681 103.568 777.125 117.107 755.839 122.195C756.615 136.338 754.245 151.602 748.73 167.987V173.291C749.764 184.243 748.601 197.739 745.24 213.779L743.559 224.386V236.675L741.75 241.979L743.559 254.268V268.367C731.322 300.448 717.233 305.751 701.29 284.278L697.8 285.96C698.059 279.665 697.456 273.24 695.991 266.686C697.714 259.959 697.714 252.327 695.991 243.79C697.542 233.959 698.145 222.187 697.8 208.476V155.699C697.369 149.231 697.929 141.556 699.481 132.673C678.712 134.57 665.226 125.774 659.021 106.285Z" fill="white"/>
<path d="M865.067 62.5623C866.359 62.2174 867.609 60.9669 868.815 58.811C915.35 74.5924 940.341 109.605 943.788 163.848C930.172 225.939 892.686 270.308 831.329 296.955C824.952 297.645 818.101 297.041 810.776 295.144C774.152 276.862 760.407 246.205 769.541 203.172L762.044 180.664L775.1 146.902L777.039 141.34L782.597 126.335L784.536 120.643L803.279 96.3242L807.028 92.5729L816.852 67.8659L823.961 65.2788C829.218 72.0915 839.171 71.186 853.821 62.5623H865.067ZM889.497 167.599C885.533 142.332 874.891 127.93 857.569 124.394C854.553 131.207 849.555 138.106 842.575 145.091L833.268 160.097L827.58 167.599C826.46 175.878 827.106 185.882 829.519 197.61C827.02 213.133 829.519 228.741 837.017 244.437C861.404 226.499 878.898 200.887 889.497 167.599Z" fill="white"/>
<path d="M1025.35 79.7666C1035 70.1081 1047.89 62.821 1064 57.9055C1089.94 58.078 1116.35 66.5292 1143.24 83.2592L1141.56 88.3041C1170 105.379 1166.59 128.404 1131.35 157.38C1165.73 185.149 1168.58 217.746 1139.88 255.173C1127.47 284.666 1103.3 297.602 1067.36 293.98C1044.1 300.879 1021.09 297.516 998.337 283.89C998.854 279.837 999.974 275.87 1001.7 271.989L1005.06 258.536V246.765L1006.74 241.72V228.267C1008.81 223.438 1009.93 217.789 1010.1 211.322L1013.46 204.595V197.869C1008.12 190.107 1007 181.656 1010.1 172.515C1019.06 152.508 1023.54 128.922 1023.54 101.757L1025.35 89.9857V79.7666ZM1096.06 154.017C1116.14 123.489 1106.01 108.872 1065.68 110.165C1064.65 115.253 1064.09 121.419 1064 128.663L1062.32 140.564V150.654L1060.64 155.699V160.743C1070.55 160.571 1082.36 158.329 1096.06 154.017ZM1101.1 234.994C1110.49 222.834 1112.17 209.338 1106.14 194.505C1094.25 198.903 1080.76 201.146 1065.68 201.232L1055.6 204.595C1047.07 227.103 1045.95 241.72 1052.24 248.447C1074.04 258.968 1090.33 254.483 1101.1 234.994Z" fill="white"/>
<path d="M1290.86 69.6769L1304.3 57L1306.24 62.4329C1320.03 60.277 1330.37 65.71 1337.26 78.7318C1337.78 97.4453 1333.26 118.487 1323.69 141.857L1319.81 159.967L1317.88 165.4C1317.96 171.523 1316.67 178.163 1314 185.321L1312.06 194.376C1311.2 200.24 1309.26 206.837 1306.24 214.167V225.033C1305.12 235.727 1306.41 247.757 1310.12 261.124V266.556L1308.18 273.8C1297.15 287.771 1283.92 297.171 1268.5 302L1250.14 277.422C1207.83 296.912 1180.08 284.278 1166.9 239.521C1165.78 232.45 1165.78 223.395 1166.9 212.356L1167.67 177.818C1161.81 158.674 1166.03 126.249 1180.34 80.5428L1195.98 62.4329C1202.1 64.2439 1207.92 67.8659 1213.43 73.2988C1214.12 83.2161 1217.35 93.4352 1223.13 103.956V109.389L1221.19 145.479V163.589C1221.7 170.402 1221.06 178.853 1219.25 188.943V201.49L1225.06 210.545C1230.84 218.479 1237.26 219.687 1244.32 214.167C1247.25 208.217 1248.55 201.016 1248.2 192.565C1255.36 183.596 1259.88 172.127 1261.78 158.156C1263.5 151.688 1266.08 145.091 1269.53 138.365L1271.47 125.688L1273.41 116.633L1281.16 98.5232L1283.1 89.4683L1286.98 80.5428L1290.86 69.6769Z" fill="white"/>
<path d="M1378.89 62.1742L1380.57 58.811L1387.29 60.4926C1394.61 78.8611 1407.97 94.4701 1427.36 107.319C1448.56 76.619 1471.44 64.9338 1496 72.264C1493.33 96.0655 1481.05 117.237 1459.16 135.778C1459.33 142.59 1458.21 150.438 1455.8 159.32C1455.37 165.961 1453.73 173.765 1450.89 182.734V201.102L1439.12 237.969L1435.76 254.656C1431.8 259.485 1427.88 266.212 1424 274.835L1420.64 276.517L1415.73 288.159L1414.05 291.522L1410.69 294.885C1406.89 301.095 1404.65 299.973 1403.96 291.522C1396.04 284.192 1392.68 274.145 1393.88 261.382L1392.2 241.332C1397.54 230.984 1400.91 218.134 1402.28 202.784C1404.35 197.869 1406.03 191.185 1407.33 182.734L1409.01 177.689C1406.59 171.135 1402.67 163.891 1397.24 155.957C1395.43 150.697 1394.87 144.531 1395.56 137.459C1391.17 131.681 1384.49 126.119 1375.53 120.772L1372.17 115.728L1368.81 112.364L1363.76 109.001L1360.4 105.638L1355.49 102.404C1355.06 101.283 1353.94 100.162 1352.13 99.0407H1347.09L1345.41 90.6325C1352.56 79.163 1363.72 69.6769 1378.89 62.1742Z" fill="white"/>
<path d="M59.6282 73.5576C65.3158 70.2805 70.831 65.2788 76.1739 58.5523H79.5347C86.4288 57.7761 93.0643 60.5357 99.4412 66.831C100.648 77.352 99.5274 88.994 96.0804 101.757L94.4 113.399V118.315L92.7196 121.678C92.7196 125.3 92.2025 129.741 91.1684 135.002C90.8237 139.917 89.7034 145.436 87.8076 151.559V158.286L104.353 164.883L115.987 169.928H121.028L124.389 171.609L136.023 173.162L147.527 174.843C153.559 156.216 155.8 134.614 154.249 110.036L155.929 105.12V95.16L154.249 91.7967L149.208 85.1996C158.514 57.9486 174.026 52.9469 195.742 70.1943V119.996C195.742 123.618 195.182 128.059 194.062 133.32V143.28C194.062 146.902 193.502 151.344 192.381 156.604V161.649L190.701 168.246C190.96 172.213 192.08 176.094 194.062 179.888V198.127L187.469 216.366C184.97 221.799 183.29 228.483 182.428 236.417L180.748 241.332L177.516 246.377L175.836 251.293L174.155 258.019L172.475 262.935L169.114 267.979C167.477 271.17 165.839 275.611 164.202 281.303L150.888 297.861C144.425 283.287 141.667 266.125 142.615 246.377C142.098 238.874 139.901 229.992 136.023 219.73V214.814C124.992 213.607 110.558 210.287 92.7196 204.854L89.488 203.172L84.4467 201.49L81.2151 199.809L76.1739 231.372L74.4935 238.098L72.813 241.332V246.377L56.2674 281.303L54.5869 286.219C51.2261 288.461 46.7881 290.66 41.2728 292.816L38.0413 277.94L36.3608 269.661C36.447 267.936 35.8869 266.255 34.6804 264.616L33 233.053C36.1885 223.395 38.9461 210.632 41.2728 194.764L42.9533 183.251C43.1256 177.473 44.2459 171.351 46.3141 164.883C45.797 160.571 46.3572 156.13 47.9945 151.559V146.644C49.3733 141.383 50.4505 134.743 51.2261 126.723C52.2602 123.705 52.8203 119.263 52.9065 113.399L56.2674 100.076V95.16C58.077 89.2958 59.1973 82.095 59.6282 73.5576Z" stroke="black" stroke-width="64" mask="url(#path-1-outside-1_38_889)"/>
<path d="M300.187 62.5623C301.479 62.2174 302.729 60.9669 303.935 58.811C350.47 74.5924 375.461 109.605 378.908 163.848C365.292 225.939 327.806 270.308 266.449 296.955C260.072 297.645 253.221 297.041 245.896 295.144C209.272 276.862 195.527 246.205 204.661 203.172L197.164 180.664L210.22 146.902L212.159 141.34L217.717 126.335L219.656 120.643L238.399 96.3242L242.148 92.5729L251.972 67.8659L259.081 65.2788C264.338 72.0915 274.291 71.186 288.941 62.5623H300.187ZM324.618 167.599C320.654 142.332 310.011 127.93 292.69 124.394C289.673 131.207 284.675 138.106 277.695 145.091L268.388 160.097L262.701 167.599C261.58 175.878 262.227 185.882 264.64 197.61C262.14 213.133 264.64 228.741 272.137 244.437C296.524 226.499 314.018 200.887 324.618 167.599Z" stroke="black" stroke-width="64" mask="url(#path-1-outside-1_38_889)"/>
<path d="M385.888 86.2344C388.818 75.4548 395.54 66.1411 406.053 58.2936C413.206 57.8624 420.402 59.9321 427.64 64.5026L433.845 100.076L435.396 106.285C435.482 110.683 436.516 115.857 438.498 121.807C438.843 129.137 440.394 137.934 443.152 148.196C443.066 149.748 443.583 151.3 444.703 152.853V160.614L447.805 168.375C447.719 170.79 448.236 173.377 449.357 176.137L450.908 185.321L452.459 191.53C461.507 176.784 462.024 160.269 454.01 141.987L458.663 132.673C470.383 122.152 483.267 118.013 497.313 120.255L505.069 112.494C506.275 112.666 507.309 113.701 508.171 115.598C510.412 130.862 509.895 148.972 506.62 169.928C509.033 174.412 511.618 180.578 514.376 188.426C517.478 195.238 520.063 203.517 522.132 213.262L523.683 216.366L525.234 222.576C528.939 217.919 532.559 211.71 536.092 203.948L546.95 182.216C548.415 178.077 550.483 173.463 553.155 168.375L554.706 165.271L556.257 160.614L557.808 157.51L559.359 152.853C562.806 147.592 565.866 140.866 568.537 132.673L571.639 126.464L574.742 123.36L576.293 118.703L579.395 114.046L582.498 107.837C586.634 100.765 592.839 94.5994 601.111 89.339C600.767 99.8599 598.181 111.2 593.356 123.36C594.562 143.539 590.426 164.193 580.946 185.321C574.483 230.251 551.259 268.497 511.274 300.06C509.119 293.247 505.5 284.968 500.415 275.223L498.864 270.567L495.762 267.462C496.451 258.838 494.426 249.568 489.687 239.65C489.17 234.994 488.135 229.819 486.584 224.128C482.448 231.027 478.828 240.34 475.726 252.069L472.624 255.173V259.83C470.987 263.279 468.401 267.376 464.868 272.119L461.766 279.88C458.319 282.726 454.182 286.865 449.357 292.298H436.947C430.484 281.087 426.348 267.678 424.538 252.069C424.107 247.929 422.599 243.79 420.014 239.65C421.048 223.352 417.946 205.242 410.707 185.321C410.362 175.921 408.294 165.098 404.502 152.853C404.502 147.678 403.468 141.987 401.4 135.778L399.849 126.464L398.298 115.598C391.404 107.578 387.267 97.7902 385.888 86.2344Z" stroke="black" stroke-width="64" mask="url(#path-1-outside-1_38_889)"/>
<path d="M659.021 106.285C668.156 81.707 686.942 65.8393 715.38 58.6816C741.06 55.7496 765.103 63.3816 787.509 81.5776C787.681 103.568 777.125 117.107 755.839 122.195C756.615 136.338 754.245 151.602 748.73 167.987V173.291C749.764 184.243 748.601 197.739 745.24 213.779L743.559 224.386V236.675L741.75 241.979L743.559 254.268V268.367C731.322 300.448 717.233 305.751 701.29 284.278L697.8 285.96C698.059 279.665 697.456 273.24 695.991 266.686C697.714 259.959 697.714 252.327 695.991 243.79C697.542 233.959 698.145 222.187 697.8 208.476V155.699C697.369 149.231 697.929 141.556 699.481 132.673C678.712 134.57 665.226 125.774 659.021 106.285Z" stroke="black" stroke-width="64" mask="url(#path-1-outside-1_38_889)"/>
<path d="M865.067 62.5623C866.359 62.2174 867.609 60.9669 868.815 58.811C915.35 74.5924 940.341 109.605 943.788 163.848C930.172 225.939 892.686 270.308 831.329 296.955C824.952 297.645 818.101 297.041 810.776 295.144C774.152 276.862 760.407 246.205 769.541 203.172L762.044 180.664L775.1 146.902L777.039 141.34L782.597 126.335L784.536 120.643L803.279 96.3242L807.028 92.5729L816.852 67.8659L823.961 65.2788C829.218 72.0915 839.171 71.186 853.821 62.5623H865.067ZM889.497 167.599C885.533 142.332 874.891 127.93 857.569 124.394C854.553 131.207 849.555 138.106 842.575 145.091L833.268 160.097L827.58 167.599C826.46 175.878 827.106 185.882 829.519 197.61C827.02 213.133 829.519 228.741 837.017 244.437C861.404 226.499 878.898 200.887 889.497 167.599Z" stroke="black" stroke-width="64" mask="url(#path-1-outside-1_38_889)"/>
<path d="M1025.35 79.7666C1035 70.1081 1047.89 62.821 1064 57.9055C1089.94 58.078 1116.35 66.5292 1143.24 83.2592L1141.56 88.3041C1170 105.379 1166.59 128.404 1131.35 157.38C1165.73 185.149 1168.58 217.746 1139.88 255.173C1127.47 284.666 1103.3 297.602 1067.36 293.98C1044.1 300.879 1021.09 297.516 998.337 283.89C998.854 279.837 999.974 275.87 1001.7 271.989L1005.06 258.536V246.765L1006.74 241.72V228.267C1008.81 223.438 1009.93 217.789 1010.1 211.322L1013.46 204.595V197.869C1008.12 190.107 1007 181.656 1010.1 172.515C1019.06 152.508 1023.54 128.922 1023.54 101.757L1025.35 89.9857V79.7666ZM1096.06 154.017C1116.14 123.489 1106.01 108.872 1065.68 110.165C1064.65 115.253 1064.09 121.419 1064 128.663L1062.32 140.564V150.654L1060.64 155.699V160.743C1070.55 160.571 1082.36 158.329 1096.06 154.017ZM1101.1 234.994C1110.49 222.834 1112.17 209.338 1106.14 194.505C1094.25 198.903 1080.76 201.146 1065.68 201.232L1055.6 204.595C1047.07 227.103 1045.95 241.72 1052.24 248.447C1074.04 258.968 1090.33 254.483 1101.1 234.994Z" stroke="black" stroke-width="64" mask="url(#path-1-outside-1_38_889)"/>
<path d="M1290.86 69.6769L1304.3 57L1306.24 62.4329C1320.03 60.277 1330.37 65.71 1337.26 78.7318C1337.78 97.4453 1333.26 118.487 1323.69 141.857L1319.81 159.967L1317.88 165.4C1317.96 171.523 1316.67 178.163 1314 185.321L1312.06 194.376C1311.2 200.24 1309.26 206.837 1306.24 214.167V225.033C1305.12 235.727 1306.41 247.757 1310.12 261.124V266.556L1308.18 273.8C1297.15 287.771 1283.92 297.171 1268.5 302L1250.14 277.422C1207.83 296.912 1180.08 284.278 1166.9 239.521C1165.78 232.45 1165.78 223.395 1166.9 212.356L1167.67 177.818C1161.81 158.674 1166.03 126.249 1180.34 80.5428L1195.98 62.4329C1202.1 64.2439 1207.92 67.8659 1213.43 73.2988C1214.12 83.2161 1217.35 93.4352 1223.13 103.956V109.389L1221.19 145.479V163.589C1221.7 170.402 1221.06 178.853 1219.25 188.943V201.49L1225.06 210.545C1230.84 218.479 1237.26 219.687 1244.32 214.167C1247.25 208.217 1248.55 201.016 1248.2 192.565C1255.36 183.596 1259.88 172.127 1261.78 158.156C1263.5 151.688 1266.08 145.091 1269.53 138.365L1271.47 125.688L1273.41 116.633L1281.16 98.5232L1283.1 89.4683L1286.98 80.5428L1290.86 69.6769Z" stroke="black" stroke-width="64" mask="url(#path-1-outside-1_38_889)"/>
<path d="M1378.89 62.1742L1380.57 58.811L1387.29 60.4926C1394.61 78.8611 1407.97 94.4701 1427.36 107.319C1448.56 76.619 1471.44 64.9338 1496 72.264C1493.33 96.0655 1481.05 117.237 1459.16 135.778C1459.33 142.59 1458.21 150.438 1455.8 159.32C1455.37 165.961 1453.73 173.765 1450.89 182.734V201.102L1439.12 237.969L1435.76 254.656C1431.8 259.485 1427.88 266.212 1424 274.835L1420.64 276.517L1415.73 288.159L1414.05 291.522L1410.69 294.885C1406.89 301.095 1404.65 299.973 1403.96 291.522C1396.04 284.192 1392.68 274.145 1393.88 261.382L1392.2 241.332C1397.54 230.984 1400.91 218.134 1402.28 202.784C1404.35 197.869 1406.03 191.185 1407.33 182.734L1409.01 177.689C1406.59 171.135 1402.67 163.891 1397.24 155.957C1395.43 150.697 1394.87 144.531 1395.56 137.459C1391.17 131.681 1384.49 126.119 1375.53 120.772L1372.17 115.728L1368.81 112.364L1363.76 109.001L1360.4 105.638L1355.49 102.404C1355.06 101.283 1353.94 100.162 1352.13 99.0407H1347.09L1345.41 90.6325C1352.56 79.163 1363.72 69.6769 1378.89 62.1742Z" stroke="black" stroke-width="64" mask="url(#path-1-outside-1_38_889)"/>
</svg>
